<svg xmlns="http://www.w3.org/2000/svg" viewBox="0 0 56.225 94.95"><title>Asset 1</title><g id="Layer_2" data-name="Layer 2"><g id="Layer_1-2" data-name="Layer 1"><path d="M28.225,60.825a5.9,5.9,0,0,0-4.2,1.7l-22.3,22.3a5.94,5.94,0,0,0,8.4,8.4l18-18,18,18a5.976,5.976,0,0,0,8.4,0,5.812,5.812,0,0,0,1.7-4.2,6.069,6.069,0,0,0-1.7-4.2l-22.1-22.3A5.9,5.9,0,0,0,28.225,60.825Z"/><path d="M24.025,32.125l-22.3,22.3a5.94,5.94,0,0,0,8.4,8.4l18-18,18,18a5.976,5.976,0,0,0,8.4,0,5.812,5.812,0,0,0,1.7-4.2,6.069,6.069,0,0,0-1.7-4.2l-22.1-22.3A5.976,5.976,0,0,0,24.025,32.125Z"/><path d="M24.025,1.725l-22.3,22.3a5.94,5.94,0,0,0,8.4,8.4l18-18,18,18a5.976,5.976,0,0,0,8.4,0,5.812,5.812,0,0,0,1.7-4.2,6.069,6.069,0,0,0-1.7-4.2l-22.1-22.3A5.976,5.976,0,0,0,24.025,1.725Z"/></g></g></svg>