<?xml version="1.0" encoding="utf-8"?>
<!-- Generator: Adobe Illustrator 23.0.3, SVG Export Plug-In . SVG Version: 6.00 Build 0)  -->
<svg version="1.1" id="Layer_1" xmlns="http://www.w3.org/2000/svg" xmlns:xlink="http://www.w3.org/1999/xlink" x="0px" y="0px"
	 viewBox="0 0 24 24" style="enable-background:new 0 0 24 24;" xml:space="preserve">
<style type="text/css">
	.st0{fill:none;}
	.st1{fill:#FFFFFF;}
</style>
<path class="st0" d="M0,0h24v24H0V0z"/>
<path class="st1" d="M11.3,9l-4.6,4.6c-0.4,0.4-0.4,1,0,1.4s1,0.4,1.4,0l3.9-3.9l3.9,3.9c0.4,0.4,1,0.4,1.4,0s0.4-1,0-1.4L12.7,9
	C12.3,8.6,11.7,8.6,11.3,9z"/>
<path class="st1" d="M11.3,17l-4.6,4.6c-0.4,0.4-0.4,1,0,1.4s1,0.4,1.4,0l3.9-3.9l3.9,3.9c0.4,0.4,1,0.4,1.4,0s0.4-1,0-1.4L12.7,17
	C12.3,16.6,11.7,16.6,11.3,17z"/>
<path class="st1" d="M11.3,1L6.7,5.6C6.3,6,6.3,6.6,6.7,7s1,0.4,1.4,0L12,3.1L15.9,7c0.4,0.4,1,0.4,1.4,0s0.4-1,0-1.4L12.7,1
	C12.3,0.6,11.7,0.6,11.3,1z"/>
</svg>
