<svg xmlns="http://www.w3.org/2000/svg" viewBox="0 0 180 270"><defs><style>.cls-1{fill:#fff;}</style></defs><title>upvotestencil</title><g id="Layer_2" data-name="Layer 2"><g id="Layer_1-2" data-name="Layer 1"><path class="cls-1" d="M0,0V270H180V0ZM145.651,248.267a12.59,12.59,0,0,1-17.7,0L90.026,210.341,52.1,248.267a12.515,12.515,0,1,1-17.7-17.7l46.986-46.986a12.723,12.723,0,0,1,17.7,0l46.565,46.986a12.788,12.788,0,0,1,3.582,8.849A12.247,12.247,0,0,1,145.651,248.267Zm0-80.975a12.59,12.59,0,0,1-17.7,0L90.026,129.366,52.1,167.293a12.515,12.515,0,0,1-17.7-17.7l46.986-46.986a12.591,12.591,0,0,1,17.7,0l46.565,46.986a12.788,12.788,0,0,1,3.582,8.849A12.246,12.246,0,0,1,145.651,167.293Zm0-80.927a12.591,12.591,0,0,1-17.7,0L90.026,48.439,52.1,86.365a12.515,12.515,0,1,1-17.7-17.7L81.388,21.68a12.591,12.591,0,0,1,17.7,0l46.565,46.986a12.788,12.788,0,0,1,3.582,8.849A12.247,12.247,0,0,1,145.651,86.365Z"/></g></g></svg>