<?xml version="1.0" encoding="utf-8"?>
<!-- Generator: Adobe Illustrator 23.0.3, SVG Export Plug-In . SVG Version: 6.00 Build 0)  -->
<svg version="1.1" id="Layer_1" xmlns="http://www.w3.org/2000/svg" xmlns:xlink="http://www.w3.org/1999/xlink" x="0px" y="0px"
	 viewBox="0 0 24 24" style="enable-background:new 0 0 24 24;" xml:space="preserve">
<style type="text/css">
	.st0{fill:none;}
	.st1{fill:#41CB00;}
</style>
<path class="st0" d="M0,0h24v24H0V0z"/>
<path class="st1" d="M11.3,9l-4.6,4.6c-0.4,0.4-0.4,1,0,1.4s1,0.4,1.4,0l3.9-3.9l3.9,3.9c0.4,0.4,1,0.4,1.4,0c0.4-0.4,0.4-1,0-1.4
	L12.7,9C12.3,8.6,11.7,8.6,11.3,9z"/>
<path class="st1" d="M11.3,15l-4.6,4.6c-0.4,0.4-0.4,1,0,1.4c0.4,0.4,1,0.4,1.4,0l3.9-3.9l3.9,3.9c0.4,0.4,1,0.4,1.4,0
	c0.4-0.4,0.4-1,0-1.4L12.7,15C12.3,14.6,11.7,14.6,11.3,15z"/>
<path class="st1" d="M11.3,3L6.7,7.6C6.3,8,6.3,8.6,6.7,9s1,0.4,1.4,0L12,5.1L15.9,9c0.4,0.4,1,0.4,1.4,0c0.4-0.4,0.4-1,0-1.4
	L12.7,3C12.3,2.6,11.7,2.6,11.3,3z"/>
</svg>
